#!OML:ASF F:\VICON\USERDATA\INSTALL\rory3\rory3.ASF
:FULLY-SPECIFIED
:DEGREES
152
root 0.434863641637102 18.263325841102514 48.343964526670156 3.8421278826257237 -1.2633929770427936 -1.2290589396379505
lfemur 19.414879269523585 -2.747895644570336 -27.655860614282876
ltibia 21.020432787669723
lfoot 19.105983829262204 -6.450914953794352
ltoes -2.9665328635333585
rfemur -48.53544633365782 -3.473113015789793 22.35264667112777
rtibia 76.25570279687582
rfoot -2.956203871491385 2.9029085701201405
rtoes -28.47188445747023
lowerback nan -2.1436202010663656 -1.7103475877129735
upperback -2.7601722944009084 -3.0678598358329374 2.9588243805783723
thorax -8.844065702030539 -0.9811574821023257 4.9774249866986295
lowerneck -19.14963131716969 -2.080139826076565 -2.61461603822449
upperneck 15.479736100879084 -2.5379001271227284 2.665681160916702
head 7.897394685051511 -1.2173642657625323 0.864376287845386
lclavicle -2.088377668365817e-14 -4.596042362451333e-15
lhumerus -40.71378086047807 -15.501360296641694 94.77465768064283
lradius 125.99781867383811
lwrist 32.197738079938006
lhand -22.949034524954268 -0.5795535195340011
lfingers nan
lthumb 2.8739893811675383 28.464622642952907
rclavicle -1.7660416431041378e-14 -4.9297235438929845e-15
rhumerus -69.71091325711407 -0.7319608660170136 -87.68895325883693
rradius 107.28435386889717
rwrist -0.5003111689450961
rhand -19.298052202861683 nan
rfingers nan
rthumb 6.571530749282888 11.649086607925337
153
root 0.4279129979074803 18.26237311706286 48.17628413583442 3.710508262352765 -1.3782910893601736 -1.1016920047270966
lfemur 19.334275895512786 -3.1342424213237963 -27.95595349760411
ltibia 23.0953437739712
lfoot 18.440072677770118 -7.50677281087966
ltoes -1.5142068080789617
rfemur -47.62644062676529 -3.6013873370215475 22.620519868060285
rtibia 71.92202135820456
rfoot -3.098627174803254 0.6921856668452744
rtoes -33.35090495108623
lowerback nan -2.028144623934317 -2.117690770665874
upperback -2.3730588472001157 -2.9903821446677137 2.99220907151223
thorax -8.271545349467356 -0.9492122515578358 5.145950661982041
lowerneck -20.001215281746685 -2.2158407614825792 -2.616716941419426
upperneck 15.638999595741515 -2.6520092309719847 2.5853666972423626
head 8.031375256311172 -1.277140548136557 0.8167627499674941
lclavicle -1.485158189335626e-14 -3.3412287613868402e-15
lhumerus -40.37701773430166 -16.306303018882442 94.7457002920865
lradius 124.91904882625863
lwrist 32.50817206165075
lhand -22.751216766419354 -0.40971178806673847
lfingers nan
lthumb 3.0715480651232703 28.616163264696517
rclavicle -1.1386395630106179e-14 -3.573440875671809e-15
rhumerus -68.99691013129272 -1.6264722415943513 -87.36193549353422
rradius 107.39054134342777
rwrist -0.13395785996124232
rhand -19.246577950152144 nan
rfingers nan
rthumb 6.620009613175207 11.8966689041603
154
root 0.5022629372547907 18.21146101220141 48.08293351109578 2.9690983850479107 -0.29478793363178646 -0.40717379829956224
lfemur 19.51841206641463 -4.3172207426967635 -28.869571283346986
ltibia 25.313616189610567
lfoot 17.43557987306218 -8.804971856143181
ltoes -0.8614314293135443
rfemur -45.96027998418597 -5.47404528273721 22.736164990930074
rtibia 68.62880319654727
rfoot -2.5871018986629934 -0.7781665217185338
rtoes -33.17935163894914
lowerback nan -2.2158632443365507 -1.7585833729800968
upperback -2.546486579541158 -3.411864065345303 2.783553636725666
thorax -9.488511371329585 -1.0497730837623147 4.823573788162517
lowerneck -20.165146591523524 -2.4441146051452103 -2.801837194981509
upperneck 15.996256303795137 -2.912820640359842 2.5998361448488687
head 8.146537464451221 -1.4154982791311705 0.8163938234274561
lclavicle -3.5836184505310054e-14 -4.063588139454075e-14
lhumerus -40.97494113453244 -16.892742324573355 95.34994372042091
lradius 123.80201594349525
lwrist 32.588981575696465
lhand -22.8002302638969 -0.4636596093892209
lfingers nan
lthumb 3.0400240350368453 28.559282584730642
rclavicle -3.249313401512164e-14 -4.07996988327482e-14
rhumerus -68.96338916464288 -2.401672883849564 -87.07751011159576
rradius 107.61464690831929
rwrist 0.5757152128335132
rhand -19.326057427800635 nan
rfingers nan
rthumb 6.53991328137785 12.086724772364382
155
root 0.5027530140017868 18.168105780982287 48.92188501522392 2.6299756674672627 -0.09959907850199556 -0.4932258698653804
lfemur 18.921018203613368 -4.969812696588487 -28.968963527345018
ltibia 28.046644219831595
lfoot 16.245898287417802 -10.566629096376564
ltoes -3.258191540211479
rfemur -45.00125420530061 -6.317237439481016 23.791961114037903
rtibia 66.25274979372985
rfoot -2.6088845816230224 -2.7713501693841596
rtoes -36.50308043459062
lowerback nan -2.1373268196591173 -1.5173159908265172
upperback -1.1072926852384566 -2.996278554092229 2.7675350888358556
thorax -7.1845310576859465 -0.9113141497167305 4.092143830021271
lowerneck -21.193674541373753 -2.722899310910015 -2.8677070025220823
upperneck 15.303304748433867 -3.2780344255202296 2.61919279049368
head 8.107243621940427 -1.5832187552920725 0.7958850725938402
lclavicle -5.058935000718267e-14 -8.921916216220238e-15
lhumerus -39.63497794395918 -17.94405969048725 95.1047807022657
lradius 122.28163001921477
lwrist 32.64609540666669
lhand -22.828675963152907 -0.31632390404488064
lfingers nan
lthumb 3.0131551307147038 28.678520721921394
rclavicle -4.6022638890659424e-14 -8.278463683320629e-15
rhumerus -67.25221742348097 -3.2894019129788514 -86.98294595326067
rradius 107.66185360126921
rwrist 1.2635387683657093
rhand -19.696773804703824 nan
rfingers nan
rthumb 6.184718308941154 12.053223537099077
156
root 0.5229191884968029 18.144407125729703 49.52268941087859 2.2295376029845624 0.379389274998688 0.03623405692049442
lfemur 18.440358335393714 -5.298875635681118 -29.43541381689698
ltibia 31.047022890298415
lfoot 15.079246841028324 -12.249476270233204
ltoes -5.421335740408705
rfemur -43.9531097846472 -7.465573784667891 24.187219310729656
rtibia 65.14429901064273
rfoot -3.90528419574465 -4.842528459078657
rtoes -41.136610748093766
lowerback nan -2.167640789289826 -1.690276683690362
upperback -0.9957491897395209 -3.04210361586186 2.5789546648929558
thorax -7.205040323827332 -0.8429981219135791 4.00664722764562
lowerneck -20.54746360307965 -2.7719593002452108 -2.678788234873349
upperneck 15.121783762564474 -3.42308247342248 2.475765714141316
head 8.000829611039173 -1.645027142764485 0.7124394717995105
lclavicle -3.922485161080863e-14 1.4801734869769557e-15
lhumerus -40.24755768809665 -18.482343751028615 95.61186678121429
lradius 120.85199343298042
lwrist 32.479553971562865
lhand -23.228672540737225 -0.24503133718440817
lfingers nan
lthumb 2.632885935099887 28.745338325669056
rclavicle -3.469090377062195e-14 2.0433195872583746e-15
rhumerus -66.99529993969955 -3.8980515966129126 -86.92767796841079
rradius 107.65769341084903
rwrist 1.3489364202847653
rhand -19.883882436095416 nan
rfingers nan
rthumb 6.018705398355674 11.866998819721582
157
root 0.5539156937699211 18.100482457330376 49.96565820913029 2.240294747041758 0.5646137769432198 0.27971862524114366
lfemur 16.786467532675747 -5.602998752400834 -29.593606143428886
ltibia 34.76430938359917
lfoot 14.50607705164599 -12.99095983552895
ltoes -3.8764203850722714
rfemur -43.44061825109365 -8.034390278530042 24.575161312002983
rtibia 64.4283048757796
rfoot -2.6368149468272 -6.66275279770921
rtoes -30.13944056966527
lowerback nan -2.132601909025454 -1.720060506701242
upperback -1.1610893911545939 -2.9592191606368727 2.588969422176431
thorax -7.615024050274128 -0.7343086400617311 3.970587839052608
lowerneck -18.765883541004328 -2.4794949120467416 -2.4544605898559793
upperneck 14.206304030090458 -3.050184688413166 2.1708394086734524
head 7.580446540525254 -1.4970734935410421 0.5994068516021869
lclavicle 3.049357389914789e-15 -2.3612186249679005e-14
lhumerus -40.85926537088454 -18.671499356851008 96.15356665148266
lradius 119.34682357566055
lwrist 32.18178074189061
lhand -23.218219380982525 -0.2329263617584798
lfingers nan
lthumb 2.645118068349242 28.742436609730106
rclavicle 6.77588552126646e-15 -2.3455643604011932e-14
rhumerus -66.48691278844437 -4.295605927833462 -86.8750577434368
rradius 107.47063443519237
rwrist 1.4477104476339697
rhand -19.889684144918917 nan
rfingers nan
rthumb 6.033120742891885 11.809676378349987
